<?xml version="1.0" encoding="UTF-8" standalone="no"?>
<svg
   width="48"
   height="48"
   overflow="hidden"
   version="1.1"
   id="svg167"
   sodipodi:docname="byteclone-logo.svg"
   viewBox="0 0 1440 1440"
   inkscape:version="1.1.2 (b8e25be833, 2022-02-05)"
   xmlns:inkscape="http://www.inkscape.org/namespaces/inkscape"
   xmlns:sodipodi="http://sodipodi.sourceforge.net/DTD/sodipodi-0.dtd"
   xmlns="http://www.w3.org/2000/svg"
   xmlns:svg="http://www.w3.org/2000/svg">
  <sodipodi:namedview
     id="namedview169"
     pagecolor="#ffffff"
     bordercolor="#666666"
     borderopacity="1.0"
     inkscape:pageshadow="2"
     inkscape:pageopacity="0.0"
     inkscape:pagecheckerboard="0"
     showgrid="false"
     scale-x="30"
     units="px"
     inkscape:zoom="11.313709"
     inkscape:cx="95.547804"
     inkscape:cy="43.929009"
     inkscape:window-width="3840"
     inkscape:window-height="2054"
     inkscape:window-x="-11"
     inkscape:window-y="-11"
     inkscape:window-maximized="1"
     inkscape:current-layer="g165" />
  <defs
     id="defs23">
    <clipPath
       id="clip0">
      <rect
         x="50"
         y="455"
         width="4733"
         height="1772"
         id="rect2" />
    </clipPath>
    <clipPath
       id="clip1">
      <rect
         x="766"
         y="645"
         width="547"
         height="547"
         id="rect5" />
    </clipPath>
    <clipPath
       id="clip2">
      <rect
         x="766"
         y="645"
         width="547"
         height="547"
         id="rect8" />
    </clipPath>
    <clipPath
       id="clip3">
      <rect
         x="766"
         y="645"
         width="547"
         height="547"
         id="rect11" />
    </clipPath>
    <clipPath
       id="clip4">
      <rect
         x="766"
         y="1238"
         width="547"
         height="547"
         id="rect14" />
    </clipPath>
    <clipPath
       id="clip5">
      <rect
         x="766"
         y="1238"
         width="547"
         height="547"
         id="rect17" />
    </clipPath>
    <clipPath
       id="clip6">
      <rect
         x="766"
         y="1238"
         width="547"
         height="547"
         id="rect20" />
    </clipPath>
  </defs>
  <g
     clip-path="url(#clip0)"
     transform="matrix(1.1132446,0,0,1.1132446,-32.213007,-650.73065)"
     id="g165">
    <path
       d="m 676.80368,683.47812 c -28.30642,0 -51.25295,22.94651 -51.25295,51.25294 0,28.30641 22.94653,51.25293 51.25295,51.25293 28.30642,0 51.25294,-22.94652 51.25294,-51.25293 0,-28.30643 -22.94652,-51.25294 -51.25294,-51.25294 z m 1.20091,-46.71461 c 53.66407,0 97.16693,43.50286 97.16693,97.16693 0,53.66407 -43.50286,97.16693 -97.16693,97.16693 -53.66407,0 -97.16693,-43.50286 -97.16693,-97.16693 0,-53.66407 43.50286,-97.16693 97.16693,-97.16693 z"
       fill="#70ad47"
       fill-rule="evenodd"
       id="path29"
       style="stroke-width:1.16368"
       sodipodi:nodetypes="ssssssssss" />
    <g
       clip-path="url(#clip1)"
       id="g37"
       transform="translate(-11.909559,23.243218)">
      <g
         clip-path="url(#clip2)"
         id="g35">
        <g
           clip-path="url(#clip3)"
           id="g33">
          <path
             d="m 0,0 h 266.686 c 16.895,0 33.154,6.67624 45.053,18.6662 L 492.543,199.47 c 11.944,11.944 18.666,28.158 18.666,45.053 V 511.209 H 244.523 c -16.895,0 -33.154,-6.722 -45.053,-18.666 L 18.6662,311.739 C 6.67624,299.795 0,283.581 0,266.686 Z"
             stroke="#70ad47"
             stroke-width="27.5949"
             stroke-miterlimit="10"
             fill="#70ad47"
             transform="matrix(1,0,0,-1,778.353,1168.57)"
             id="path31" />
        </g>
      </g>
    </g>
    <g
       clip-path="url(#clip4)"
       id="g45"
       transform="translate(-11.909559,23.243218)">
      <g
         clip-path="url(#clip5)"
         id="g43">
        <g
           clip-path="url(#clip6)"
           id="g41">
          <path
             d="m 778.353,1261.43 h 266.687 c 16.89,0 33.15,6.68 45.05,18.67 l 180.81,180.8 c 11.94,11.95 18.66,28.16 18.66,45.06 v 266.68 h -266.68 c -16.9,0 -33.158,-6.72 -45.057,-18.66 L 797.019,1573.17 c -11.99,-11.94 -18.666,-28.16 -18.666,-45.05 z"
             stroke="#4472c4"
             stroke-width="27.5949"
             stroke-miterlimit="10"
             fill="#4472c4"
             id="path39" />
        </g>
      </g>
    </g>
    <path
       d="m 644.02601,1677.4424 c -22.58204,0 -40.88767,18.2999 -40.88767,40.8684 0,4.2344 0.64368,8.3099 1.83795,12.1583 l 2.09337,4.348 -0.30538,-0.034 c -18.01274,0 -32.61524,14.5991 -32.61524,32.6038 0,18.0049 14.6025,32.5926 32.61524,32.5926 l 0.70952,-0.069 h 133.31149 l 1.35774,0.1363 c 22.58204,0 40.88881,-18.3 40.88881,-40.8684 0,-22.5684 -18.30677,-40.8684 -40.88881,-40.8684 -2.82218,0 -5.57853,0.2838 -8.24065,0.8287 l -4.99956,1.5553 -1.56209,-5.0291 c -4.95075,-11.7043 -16.54261,-19.912 -30.05188,-19.912 -4.50346,0 -8.79351,0.9083 -12.6953,2.5657 l -3.94948,2.1342 -2.71206,-4.995 c -7.34837,-10.8642 -19.79165,-18.0162 -33.906,-18.0162 z"
       stroke="#4472c4"
       stroke-width="23.4141"
       stroke-miterlimit="8"
       fill="#4472c4"
       fill-rule="evenodd"
       id="path47" />
    <path
       d="m 45.590341,674.24323 c 0,-16.292 12.9838,-29.5 29,-29.5 16.0161,0 29.000099,13.208 29.000099,29.5 0,16.292 -12.983999,29.5 -29.000099,29.5 -16.0162,0 -29,-13.208 -29,-29.5 z"
       stroke="#70ad47"
       stroke-width="4.58333"
       stroke-miterlimit="8"
       fill="#70ad47"
       fill-rule="evenodd"
       id="path49" />
    <path
       d="m 43.590241,968.24323 c 0,-16.292 13.2077,-29.5 29.5001,-29.5 16.2921,0 29.500099,13.208 29.500099,29.5 0,16.292 -13.207999,29.5 -29.500099,29.5 -16.2924,0 -29.5001,-13.208 -29.5001,-29.5 z"
       stroke="#70ad47"
       stroke-width="4.58333"
       stroke-miterlimit="8"
       fill="#70ad47"
       fill-rule="evenodd"
       id="path51" />
    <path
       d="m 262.59044,1195.2434 c 0,-16.29 13.208,-29.5 29.5,-29.5 16.292,0 29.5,13.21 29.5,29.5 0,16.29 -13.208,29.5 -29.5,29.5 -16.292,0 -29.5,-13.21 -29.5,-29.5 z"
       stroke="#70ad47"
       stroke-width="4.58333"
       stroke-miterlimit="8"
       fill="#70ad47"
       fill-rule="evenodd"
       id="path53" />
    <path
       d="m 344.59044,675.24323 c 0,-16.292 13.208,-29.5 29.5,-29.5 16.292,0 29.5,13.208 29.5,29.5 0,16.293 -13.208,29.5 -29.5,29.5 -16.292,0 -29.5,-13.207 -29.5,-29.5 z"
       stroke="#70ad47"
       stroke-width="4.58333"
       stroke-miterlimit="8"
       fill="#70ad47"
       fill-rule="evenodd"
       id="path55" />
    <path
       d="m 566.59044,899.24323 c 0,-16.292 12.984,-29.5 29,-29.5 16.016,0 29,13.208 29,29.5 0,16.292 -12.984,29.5 -29,29.5 -16.016,0 -29,-13.208 -29,-29.5 z"
       stroke="#70ad47"
       stroke-width="4.58333"
       stroke-miterlimit="8"
       fill="#70ad47"
       fill-rule="evenodd"
       id="path57" />
    <path
       d="m 565.59044,1193.2434 c 0,-16.29 12.984,-29.5 29,-29.5 16.016,0 29,13.21 29,29.5 0,16.29 -12.984,29.5 -29,29.5 -16.016,0 -29,-13.21 -29,-29.5 z"
       stroke="#70ad47"
       stroke-width="4.58333"
       stroke-miterlimit="8"
       fill="#70ad47"
       fill-rule="evenodd"
       id="path59" />
    <path
       d="m 298.59044,1105.2434 c 0,-16.29 13.208,-29.5 29.5,-29.5 16.292,0 29.5,13.21 29.5,29.5 0,16.29 -13.208,29.5 -29.5,29.5 -16.292,0 -29.5,-13.21 -29.5,-29.5 z"
       stroke="#70ad47"
       stroke-width="4.58333"
       stroke-miterlimit="8"
       fill="#70ad47"
       fill-rule="evenodd"
       id="path61" />
    <path
       d="m 135.59044,763.24323 c 0,-16.292 12.984,-29.5 29,-29.5 16.016,0 29,13.208 29,29.5 0,16.293 -12.984,29.5 -29,29.5 -16.016,0 -29,-13.207 -29,-29.5 z"
       stroke="#70ad47"
       stroke-width="4.58333"
       stroke-miterlimit="8"
       fill="#70ad47"
       fill-rule="evenodd"
       id="path63" />
    <path
       d="m 482.59044,925.24323 c 0,-16.292 13.208,-29.5 29.5,-29.5 16.292,0 29.5,13.208 29.5,29.5 0,16.292 -13.208,29.5 -29.5,29.5 -16.292,0 -29.5,-13.208 -29.5,-29.5 z"
       stroke="#70ad47"
       stroke-width="4.58333"
       stroke-miterlimit="8"
       fill="#70ad47"
       fill-rule="evenodd"
       id="path65" />
    <path
       d="m 516.09044,927.74323 76.7708,-27.5"
       stroke="#70ad47"
       stroke-width="13.75"
       stroke-miterlimit="8"
       fill="none"
       fill-rule="evenodd"
       id="path67" />
    <path
       d="m 73.617941,680.24323 -1.52766,283.403"
       stroke="#70ad47"
       stroke-width="13.75"
       stroke-miterlimit="8"
       fill="none"
       fill-rule="evenodd"
       id="path69" />
    <path
       d="m 76.090441,675.24323 87.082999,87.083"
       stroke="#70ad47"
       stroke-width="13.75"
       stroke-miterlimit="8"
       fill="none"
       fill-rule="evenodd"
       id="path71" />
    <path
       d="M 74.090341,674.00723 372.77034,673.24322"
       stroke="#70ad47"
       stroke-width="13.75"
       stroke-miterlimit="8"
       fill="none"
       fill-rule="evenodd"
       id="path73" />
    <path
       d="m 373.09044,674.24323 220.764,221.528"
       stroke="#70ad47"
       stroke-width="13.75"
       stroke-miterlimit="8"
       fill="none"
       fill-rule="evenodd"
       id="path75" />
    <path
       d="m 595.09044,898.24323 0.764,294.10017"
       stroke="#70ad47"
       stroke-width="13.75"
       stroke-miterlimit="8"
       fill="none"
       fill-rule="evenodd"
       id="path77" />
    <path
       d="M 73.090341,970.24323 292.51744,1195.9734"
       stroke="#70ad47"
       stroke-width="13.75"
       stroke-miterlimit="8"
       fill="none"
       fill-rule="evenodd"
       id="path79" />
    <path
       d="m 594.09144,1195.3034 -305.001,-0.06"
       stroke="#70ad47"
       stroke-width="13.75"
       stroke-miterlimit="8"
       fill="none"
       fill-rule="evenodd"
       id="path81" />
    <path
       d="m 328.90244,1108.2434 -37.8125,85.3648"
       stroke="#70ad47"
       stroke-width="13.75"
       stroke-miterlimit="8"
       fill="none"
       fill-rule="evenodd"
       id="path83" />
    <path
       d="m 372.47844,674.24323 -211.388,89.0513"
       stroke="#70ad47"
       stroke-width="13.75"
       stroke-miterlimit="8"
       fill="none"
       fill-rule="evenodd"
       id="path85" />
    <path
       d="m 71.090241,966.55923 96.077499,-199.317"
       stroke="#70ad47"
       stroke-width="13.75"
       stroke-miterlimit="8"
       fill="none"
       fill-rule="evenodd"
       id="path87" />
    <path
       d="m 163.09044,762.24323 167.292,347.19017"
       stroke="#70ad47"
       stroke-width="13.75"
       stroke-miterlimit="8"
       fill="none"
       fill-rule="evenodd"
       id="path89" />
    <path
       d="m 164.09044,762.24323 346.042,162.708"
       stroke="#70ad47"
       stroke-width="13.75"
       stroke-miterlimit="8"
       fill="none"
       fill-rule="evenodd"
       id="path91" />
    <path
       d="m 509.54844,922.24323 -176.458,176.45817"
       stroke="#70ad47"
       stroke-width="13.75"
       stroke-miterlimit="8"
       fill="none"
       fill-rule="evenodd"
       id="path93" />
    <path
       d="m 332.09044,1104.2434 261.25,90.52"
       stroke="#70ad47"
       stroke-width="13.75"
       stroke-miterlimit="8"
       fill="none"
       fill-rule="evenodd"
       id="path95" />
    <path
       d="m 512.09044,922.24323 81.354,271.56017"
       stroke="#70ad47"
       stroke-width="13.75"
       stroke-miterlimit="8"
       fill="none"
       fill-rule="evenodd"
       id="path97" />
    <path
       d="M 77.090441,965.24323 328.02844,1106.7534"
       stroke="#70ad47"
       stroke-width="13.75"
       stroke-miterlimit="8"
       fill="none"
       fill-rule="evenodd"
       id="path99" />
    <path
       d="m 375.09044,679.24323 137.5,246.354"
       stroke="#70ad47"
       stroke-width="13.75"
       stroke-miterlimit="8"
       fill="none"
       fill-rule="evenodd"
       id="path101" />
    <path
       d="m 70.090441,1841.7434 c -16.2924,0 -29.4999,-12.98 -29.4999,-29 0,-16.02 13.2075,-29 29.4999,-29 16.2923,0 29.5,12.98 29.5,29 0,16.02 -13.2077,29 -29.5,29 z"
       stroke="#4472c4"
       stroke-width="4.58333"
       stroke-miterlimit="8"
       fill="#4472c4"
       fill-rule="evenodd"
       id="path103" />
    <path
       d="m 364.59044,1843.7434 c -16.016,0 -29,-13.21 -29,-29.5 0,-16.29 12.984,-29.5 29,-29.5 16.017,0 29,13.21 29,29.5 0,16.29 -12.983,29.5 -29,29.5 z"
       stroke="#4472c4"
       stroke-width="4.58333"
       stroke-miterlimit="8"
       fill="#4472c4"
       fill-rule="evenodd"
       id="path105" />
    <path
       d="m 591.09044,1624.7434 c -16.292,0 -29.5,-13.21 -29.5,-29.5 0,-16.29 13.208,-29.5 29.5,-29.5 16.292,0 29.5,13.21 29.5,29.5 0,16.29 -13.208,29.5 -29.5,29.5 z"
       stroke="#4472c4"
       stroke-width="4.58333"
       stroke-miterlimit="8"
       fill="#4472c4"
       fill-rule="evenodd"
       id="path107" />
    <path
       d="m 71.590641,1542.7434 c -16.0162,0 -28.9999,-13.21 -28.9999,-29.5 0,-16.29 12.9837,-29.5 28.9999,-29.5 16.0162,0 28.999799,13.21 28.999799,29.5 0,16.29 -12.983599,29.5 -28.999799,29.5 z"
       stroke="#4472c4"
       stroke-width="4.58333"
       stroke-miterlimit="8"
       fill="#4472c4"
       fill-rule="evenodd"
       id="path109" />
    <path
       d="m 295.09044,1320.7434 c -16.293,0 -29.5,-12.98 -29.5,-29 0,-16.02 13.207,-29 29.5,-29 16.292,0 29.5,12.98 29.5,29 0,16.02 -13.208,29 -29.5,29 z"
       stroke="#4472c4"
       stroke-width="4.58333"
       stroke-miterlimit="8"
       fill="#4472c4"
       fill-rule="evenodd"
       id="path111" />
    <path
       d="m 590.09044,1321.7434 c -16.293,0 -29.5,-12.98 -29.5,-29 0,-16.02 13.207,-29 29.5,-29 16.292,0 29.5,12.98 29.5,29 0,16.02 -13.208,29 -29.5,29 z"
       stroke="#4472c4"
       stroke-width="4.58333"
       stroke-miterlimit="8"
       fill="#4472c4"
       fill-rule="evenodd"
       id="path113" />
    <path
       d="m 501.59044,1588.7434 c -16.016,0 -29,-13.21 -29,-29.5 0,-16.29 12.984,-29.5 29,-29.5 16.016,0 29,13.21 29,29.5 0,16.29 -12.984,29.5 -29,29.5 z"
       stroke="#4472c4"
       stroke-width="4.58333"
       stroke-miterlimit="8"
       fill="#4472c4"
       fill-rule="evenodd"
       id="path115" />
    <path
       d="m 159.09044,1751.7434 c -16.292,0 -29.5,-12.98 -29.5,-29 0,-16.02 13.208,-29 29.5,-29 16.292,0 29.5,12.98 29.5,29 0,16.02 -13.208,29 -29.5,29 z"
       stroke="#4472c4"
       stroke-width="4.58333"
       stroke-miterlimit="8"
       fill="#4472c4"
       fill-rule="evenodd"
       id="path117" />
    <path
       d="m 321.09044,1404.7434 c -16.292,0 -29.5,-13.21 -29.5,-29.5 0,-16.29 13.208,-29.5 29.5,-29.5 16.293,0 29.5,13.21 29.5,29.5 0,16.29 -13.207,29.5 -29.5,29.5 z"
       stroke="#4472c4"
       stroke-width="4.58333"
       stroke-miterlimit="8"
       fill="#4472c4"
       fill-rule="evenodd"
       id="path119" />
    <path
       d="m 323.59044,1370.0134 -27.5,-76.7708"
       stroke="#4472c4"
       stroke-width="13.75"
       stroke-miterlimit="8"
       fill="none"
       fill-rule="evenodd"
       id="path121" />
    <path
       d="m 76.090241,1812.2434 283.402999,1.5276"
       stroke="#4472c4"
       stroke-width="13.75"
       stroke-miterlimit="8"
       fill="none"
       fill-rule="evenodd"
       id="path123" />
    <path
       d="m 71.090241,1810.3234 87.083199,-87.08"
       stroke="#4472c4"
       stroke-width="13.75"
       stroke-miterlimit="8"
       fill="none"
       fill-rule="evenodd"
       id="path125" />
    <path
       d="m 70.854841,1811.9234 -0.764009,-298.68"
       stroke="#4472c4"
       stroke-width="13.75"
       stroke-miterlimit="8"
       fill="none"
       fill-rule="evenodd"
       id="path127" />
    <path
       d="m 71.090241,1513.0034 221.527199,-220.76"
       stroke="#4472c4"
       stroke-width="13.75"
       stroke-miterlimit="8"
       fill="none"
       fill-rule="evenodd"
       id="path129" />
    <path
       d="m 294.09044,1292.0034 294.097,-0.76"
       stroke="#4472c4"
       stroke-width="13.75"
       stroke-miterlimit="8"
       fill="none"
       fill-rule="evenodd"
       id="path131" />
    <path
       d="m 366.09044,1813.6734 225.729,-219.43"
       stroke="#4472c4"
       stroke-width="13.75"
       stroke-miterlimit="8"
       fill="none"
       fill-rule="evenodd"
       id="path133" />
    <path
       d="m 591.14844,1292.2434 -0.058,305"
       stroke="#4472c4"
       stroke-width="13.75"
       stroke-miterlimit="8"
       fill="none"
       fill-rule="evenodd"
       id="path135" />
    <path
       d="m 504.09044,1558.2434 85.3648,37.8125"
       stroke="#4472c4"
       stroke-width="13.75"
       stroke-miterlimit="8"
       fill="none"
       fill-rule="evenodd"
       id="path137" />
    <path
       d="m 71.090241,1514.2434 89.051299,211.388"
       stroke="#4472c4"
       stroke-width="13.75"
       stroke-miterlimit="8"
       fill="none"
       fill-rule="evenodd"
       id="path139" />
    <path
       d="m 362.40644,1815.3234 -199.317,-96.0775"
       stroke="#4472c4"
       stroke-width="13.75"
       stroke-miterlimit="8"
       fill="none"
       fill-rule="evenodd"
       id="path141" />
    <path
       d="m 158.09044,1722.5334 347.188,-167.29"
       stroke="#4472c4"
       stroke-width="13.75"
       stroke-miterlimit="8"
       fill="none"
       fill-rule="evenodd"
       id="path143" />
    <path
       d="m 158.09044,1722.2834 162.708,-346.04"
       stroke="#4472c4"
       stroke-width="13.75"
       stroke-miterlimit="8"
       fill="none"
       fill-rule="evenodd"
       id="path145" />
    <path
       d="m 319.09044,1377.2434 176.458,176.458"
       stroke="#4472c4"
       stroke-width="13.75"
       stroke-miterlimit="8"
       fill="none"
       fill-rule="evenodd"
       id="path147" />
    <path
       d="m 500.09044,1554.4934 90.521,-261.25"
       stroke="#4472c4"
       stroke-width="13.75"
       stroke-miterlimit="8"
       fill="none"
       fill-rule="evenodd"
       id="path149" />
    <path
       d="m 319.09044,1374.5934 271.562,-81.35"
       stroke="#4472c4"
       stroke-width="13.75"
       stroke-miterlimit="8"
       fill="none"
       fill-rule="evenodd"
       id="path151" />
    <path
       d="m 361.09044,1809.1834 141.511,-250.94"
       stroke="#4472c4"
       stroke-width="13.75"
       stroke-miterlimit="8"
       fill="none"
       fill-rule="evenodd"
       id="path153" />
    <path
       d="m 75.090241,1510.7434 246.354199,-137.5"
       stroke="#4472c4"
       stroke-width="13.75"
       stroke-miterlimit="8"
       fill="none"
       fill-rule="evenodd"
       id="path155" />
    <path
       d="M 678.59044,860.74323 V 1014.1162"
       stroke="#70ad47"
       stroke-width="55"
       stroke-miterlimit="8"
       fill="none"
       fill-rule="evenodd"
       id="path157" />
    <path
       d="m 678.59044,1067.7434 v 153.37"
       stroke="#70ad47"
       stroke-width="55"
       stroke-miterlimit="8"
       fill="none"
       fill-rule="evenodd"
       id="path159" />
    <path
       d="m 678.59044,1273.7434 v 153.37"
       stroke="#4472c4"
       stroke-width="55"
       stroke-miterlimit="8"
       fill="none"
       fill-rule="evenodd"
       id="path161" />
    <path
       d="m 678.59044,1479.7434 v 153.37"
       stroke="#4472c4"
       stroke-width="55"
       stroke-miterlimit="8"
       fill="none"
       fill-rule="evenodd"
       id="path163" />
  </g>
</svg>
