<?xml version="1.0" encoding="UTF-8" standalone="no"?>
<svg
   width="210"
   height="60"
   overflow="hidden"
   version="1.1"
   id="svg167"
   sodipodi:docname="logo.svg"
   viewBox="0 0 4788 1368"
   inkscape:version="1.1.2 (b8e25be833, 2022-02-05)"
   xmlns:inkscape="http://www.inkscape.org/namespaces/inkscape"
   xmlns:sodipodi="http://sodipodi.sourceforge.net/DTD/sodipodi-0.dtd"
   xmlns="http://www.w3.org/2000/svg"
   xmlns:svg="http://www.w3.org/2000/svg">
  <sodipodi:namedview
     id="namedview169"
     pagecolor="#ffffff"
     bordercolor="#666666"
     borderopacity="1.0"
     inkscape:pageshadow="2"
     inkscape:pageopacity="0.0"
     inkscape:pagecheckerboard="0"
     showgrid="false"
     scale-x="22.8"
     units="px"
     inkscape:zoom="12.363089"
     inkscape:cx="40.281195"
     inkscape:cy="57.267241"
     inkscape:window-width="3840"
     inkscape:window-height="2054"
     inkscape:window-x="-11"
     inkscape:window-y="-11"
     inkscape:window-maximized="1"
     inkscape:current-layer="g165" />
  <defs
     id="defs23">
    <clipPath
       id="clip0">
      <rect
         x="50"
         y="455"
         width="4733"
         height="1772"
         id="rect2" />
    </clipPath>
    <clipPath
       id="clip1">
      <rect
         x="766"
         y="645"
         width="547"
         height="547"
         id="rect5" />
    </clipPath>
    <clipPath
       id="clip2">
      <rect
         x="766"
         y="645"
         width="547"
         height="547"
         id="rect8" />
    </clipPath>
    <clipPath
       id="clip3">
      <rect
         x="766"
         y="645"
         width="547"
         height="547"
         id="rect11" />
    </clipPath>
    <clipPath
       id="clip4">
      <rect
         x="766"
         y="1238"
         width="547"
         height="547"
         id="rect14" />
    </clipPath>
    <clipPath
       id="clip5">
      <rect
         x="766"
         y="1238"
         width="547"
         height="547"
         id="rect17" />
    </clipPath>
    <clipPath
       id="clip6">
      <rect
         x="766"
         y="1238"
         width="547"
         height="547"
         id="rect20" />
    </clipPath>
  </defs>
  <g
     clip-path="url(#clip0)"
     transform="matrix(1.1132446,0,0,1.1132446,-32.213007,-650.73065)"
     id="g165">
    <text
       fill="#4472c4"
       font-family="YouYuan, YouYuan_MSFontService, sans-serif"
       font-weight="700"
       font-size="733px"
       id="text27"
       x="1398.11"
       y="1645.7507">数位分生<tspan
   fill="#70ad47"
   font-family="Aharoni, Aharoni_MSFontService, sans-serif"
   font-size="385px"
   x="1429.5906"
   y="897.75067"
   id="tspan25">ByteClone</tspan></text>
    <path
       d="m 688.71324,642.98562 c -28.30642,0 -51.25295,22.94651 -51.25295,51.25294 0,28.30641 22.94653,51.25293 51.25295,51.25293 28.30642,0 51.25294,-22.94652 51.25294,-51.25293 0,-28.30643 -22.94652,-51.25294 -51.25294,-51.25294 z m -51.9209,-9.87729 c -5.45413,0 -9.87727,4.42314 -9.87727,9.87729 0,5.4553 4.42314,9.87726 9.87727,9.87726 5.45531,0 9.87728,-4.42196 9.87728,-9.87726 0,-5.45415 -4.42197,-9.87729 -9.87728,-9.87729 z m 53.12181,-36.83732 c 53.66407,0 97.16693,43.50286 97.16693,97.16693 0,53.66407 -43.50286,97.16693 -97.16693,97.16693 -53.66407,0 -97.16693,-43.50286 -97.16693,-97.16693 0,-53.66407 43.50286,-97.16693 97.16693,-97.16693 z"
       fill="#70ad47"
       fill-rule="evenodd"
       id="path29"
       style="stroke-width:1.16368" />
    <g
       clip-path="url(#clip1)"
       id="g37"
       transform="translate(0,-17.249282)">
      <g
         clip-path="url(#clip2)"
         id="g35">
        <g
           clip-path="url(#clip3)"
           id="g33">
          <path
             d="m 0,0 h 266.686 c 16.895,0 33.154,6.67624 45.053,18.6662 L 492.543,199.47 c 11.944,11.944 18.666,28.158 18.666,45.053 V 511.209 H 244.523 c -16.895,0 -33.154,-6.722 -45.053,-18.666 L 18.6662,311.739 C 6.67624,299.795 0,283.581 0,266.686 Z"
             stroke="#70ad47"
             stroke-width="27.5949"
             stroke-miterlimit="10"
             fill="#70ad47"
             transform="matrix(1,0,0,-1,778.353,1168.57)"
             id="path31" />
        </g>
      </g>
    </g>
    <g
       clip-path="url(#clip4)"
       id="g45"
       transform="translate(0,-17.249282)">
      <g
         clip-path="url(#clip5)"
         id="g43">
        <g
           clip-path="url(#clip6)"
           id="g41">
          <path
             d="m 778.353,1261.43 h 266.687 c 16.89,0 33.15,6.68 45.05,18.67 l 180.81,180.8 c 11.94,11.95 18.66,28.16 18.66,45.06 v 266.68 h -266.68 c -16.9,0 -33.158,-6.72 -45.057,-18.66 L 797.019,1573.17 c -11.99,-11.94 -18.666,-28.16 -18.666,-45.05 z"
             stroke="#4472c4"
             stroke-width="27.5949"
             stroke-miterlimit="10"
             fill="#4472c4"
             id="path39" />
        </g>
      </g>
    </g>
    <path
       d="m 655.93557,1636.9499 c -22.58204,0 -40.88767,18.2999 -40.88767,40.8684 0,4.2344 0.64368,8.3099 1.83795,12.1583 l 2.09337,4.348 -0.30538,-0.034 c -18.01274,0 -32.61524,14.5991 -32.61524,32.6038 0,18.0049 14.6025,32.5926 32.61524,32.5926 l 0.70952,-0.069 h 133.31149 l 1.35774,0.1363 c 22.58204,0 40.88881,-18.3 40.88881,-40.8684 0,-22.5684 -18.30677,-40.8684 -40.88881,-40.8684 -2.82218,0 -5.57853,0.2838 -8.24065,0.8287 l -4.99956,1.5553 -1.56209,-5.0291 c -4.95075,-11.7043 -16.54261,-19.912 -30.05188,-19.912 -4.50346,0 -8.79351,0.9083 -12.6953,2.5657 l -3.94948,2.1342 -2.71206,-4.995 c -7.34837,-10.8642 -19.79165,-18.0162 -33.906,-18.0162 z"
       stroke="#4472c4"
       stroke-width="23.4141"
       stroke-miterlimit="8"
       fill="#4472c4"
       fill-rule="evenodd"
       id="path47" />
    <path
       d="m 57.4999,633.75073 c 0,-16.292 12.9838,-29.5 29,-29.5 16.0161,0 29.0001,13.208 29.0001,29.5 0,16.292 -12.984,29.5 -29.0001,29.5 -16.0162,0 -29,-13.208 -29,-29.5 z"
       stroke="#70ad47"
       stroke-width="4.58333"
       stroke-miterlimit="8"
       fill="#70ad47"
       fill-rule="evenodd"
       id="path49" />
    <path
       d="m 55.4998,927.75073 c 0,-16.292 13.2077,-29.5 29.5001,-29.5 16.2921,0 29.5001,13.208 29.5001,29.5 0,16.292 -13.208,29.5 -29.5001,29.5 -16.2924,0 -29.5001,-13.208 -29.5001,-29.5 z"
       stroke="#70ad47"
       stroke-width="4.58333"
       stroke-miterlimit="8"
       fill="#70ad47"
       fill-rule="evenodd"
       id="path51" />
    <path
       d="m 274.5,1154.7509 c 0,-16.29 13.208,-29.5 29.5,-29.5 16.292,0 29.5,13.21 29.5,29.5 0,16.29 -13.208,29.5 -29.5,29.5 -16.292,0 -29.5,-13.21 -29.5,-29.5 z"
       stroke="#70ad47"
       stroke-width="4.58333"
       stroke-miterlimit="8"
       fill="#70ad47"
       fill-rule="evenodd"
       id="path53" />
    <path
       d="m 356.5,634.75073 c 0,-16.292 13.208,-29.5 29.5,-29.5 16.292,0 29.5,13.208 29.5,29.5 0,16.293 -13.208,29.5 -29.5,29.5 -16.292,0 -29.5,-13.207 -29.5,-29.5 z"
       stroke="#70ad47"
       stroke-width="4.58333"
       stroke-miterlimit="8"
       fill="#70ad47"
       fill-rule="evenodd"
       id="path55" />
    <path
       d="m 578.5,858.75073 c 0,-16.292 12.984,-29.5 29,-29.5 16.016,0 29,13.208 29,29.5 0,16.292 -12.984,29.5 -29,29.5 -16.016,0 -29,-13.208 -29,-29.5 z"
       stroke="#70ad47"
       stroke-width="4.58333"
       stroke-miterlimit="8"
       fill="#70ad47"
       fill-rule="evenodd"
       id="path57" />
    <path
       d="m 577.5,1152.7509 c 0,-16.29 12.984,-29.5 29,-29.5 16.016,0 29,13.21 29,29.5 0,16.29 -12.984,29.5 -29,29.5 -16.016,0 -29,-13.21 -29,-29.5 z"
       stroke="#70ad47"
       stroke-width="4.58333"
       stroke-miterlimit="8"
       fill="#70ad47"
       fill-rule="evenodd"
       id="path59" />
    <path
       d="m 310.5,1064.7509 c 0,-16.29 13.208,-29.5 29.5,-29.5 16.292,0 29.5,13.21 29.5,29.5 0,16.29 -13.208,29.5 -29.5,29.5 -16.292,0 -29.5,-13.21 -29.5,-29.5 z"
       stroke="#70ad47"
       stroke-width="4.58333"
       stroke-miterlimit="8"
       fill="#70ad47"
       fill-rule="evenodd"
       id="path61" />
    <path
       d="m 147.5,722.75073 c 0,-16.292 12.984,-29.5 29,-29.5 16.016,0 29,13.208 29,29.5 0,16.293 -12.984,29.5 -29,29.5 -16.016,0 -29,-13.207 -29,-29.5 z"
       stroke="#70ad47"
       stroke-width="4.58333"
       stroke-miterlimit="8"
       fill="#70ad47"
       fill-rule="evenodd"
       id="path63" />
    <path
       d="m 494.5,884.75073 c 0,-16.292 13.208,-29.5 29.5,-29.5 16.292,0 29.5,13.208 29.5,29.5 0,16.292 -13.208,29.5 -29.5,29.5 -16.292,0 -29.5,-13.208 -29.5,-29.5 z"
       stroke="#70ad47"
       stroke-width="4.58333"
       stroke-miterlimit="8"
       fill="#70ad47"
       fill-rule="evenodd"
       id="path65" />
    <path
       d="m 528,887.25073 76.7708,-27.5"
       stroke="#70ad47"
       stroke-width="13.75"
       stroke-miterlimit="8"
       fill="none"
       fill-rule="evenodd"
       id="path67" />
    <path
       d="m 85.5275,639.75073 -1.52766,283.403"
       stroke="#70ad47"
       stroke-width="13.75"
       stroke-miterlimit="8"
       fill="none"
       fill-rule="evenodd"
       id="path69" />
    <path
       d="m 88,634.75073 87.083,87.083"
       stroke="#70ad47"
       stroke-width="13.75"
       stroke-miterlimit="8"
       fill="none"
       fill-rule="evenodd"
       id="path71" />
    <path
       d="m 85.9999,633.51473 298.68,-0.76401"
       stroke="#70ad47"
       stroke-width="13.75"
       stroke-miterlimit="8"
       fill="none"
       fill-rule="evenodd"
       id="path73" />
    <path
       d="m 385,633.75073 220.764,221.528"
       stroke="#70ad47"
       stroke-width="13.75"
       stroke-miterlimit="8"
       fill="none"
       fill-rule="evenodd"
       id="path75" />
    <path
       d="m 607,857.75073 0.764,294.10017"
       stroke="#70ad47"
       stroke-width="13.75"
       stroke-miterlimit="8"
       fill="none"
       fill-rule="evenodd"
       id="path77" />
    <path
       d="M 84.9999,929.75073 304.427,1155.4809"
       stroke="#70ad47"
       stroke-width="13.75"
       stroke-miterlimit="8"
       fill="none"
       fill-rule="evenodd"
       id="path79" />
    <path
       d="M 606.001,1154.8109 301,1154.7509"
       stroke="#70ad47"
       stroke-width="13.75"
       stroke-miterlimit="8"
       fill="none"
       fill-rule="evenodd"
       id="path81" />
    <path
       d="m 340.812,1067.7509 -37.8125,85.3648"
       stroke="#70ad47"
       stroke-width="13.75"
       stroke-miterlimit="8"
       fill="none"
       fill-rule="evenodd"
       id="path83" />
    <path
       d="M 384.388,633.75073 173,722.80203"
       stroke="#70ad47"
       stroke-width="13.75"
       stroke-miterlimit="8"
       fill="none"
       fill-rule="evenodd"
       id="path85" />
    <path
       d="m 82.9998,926.06673 96.0775,-199.317"
       stroke="#70ad47"
       stroke-width="13.75"
       stroke-miterlimit="8"
       fill="none"
       fill-rule="evenodd"
       id="path87" />
    <path
       d="M 175,721.75073 342.292,1068.9409"
       stroke="#70ad47"
       stroke-width="13.75"
       stroke-miterlimit="8"
       fill="none"
       fill-rule="evenodd"
       id="path89" />
    <path
       d="m 176,721.75073 346.042,162.708"
       stroke="#70ad47"
       stroke-width="13.75"
       stroke-miterlimit="8"
       fill="none"
       fill-rule="evenodd"
       id="path91" />
    <path
       d="M 521.458,881.75073 345,1058.2089"
       stroke="#70ad47"
       stroke-width="13.75"
       stroke-miterlimit="8"
       fill="none"
       fill-rule="evenodd"
       id="path93" />
    <path
       d="m 344,1063.7509 261.25,90.52"
       stroke="#70ad47"
       stroke-width="13.75"
       stroke-miterlimit="8"
       fill="none"
       fill-rule="evenodd"
       id="path95" />
    <path
       d="m 524,881.75073 81.354,271.56017"
       stroke="#70ad47"
       stroke-width="13.75"
       stroke-miterlimit="8"
       fill="none"
       fill-rule="evenodd"
       id="path97" />
    <path
       d="M 89,924.75073 339.938,1066.2609"
       stroke="#70ad47"
       stroke-width="13.75"
       stroke-miterlimit="8"
       fill="none"
       fill-rule="evenodd"
       id="path99" />
    <path
       d="m 387,638.75073 137.5,246.354"
       stroke="#70ad47"
       stroke-width="13.75"
       stroke-miterlimit="8"
       fill="none"
       fill-rule="evenodd"
       id="path101" />
    <path
       d="m 82,1801.2509 c -16.2924,0 -29.4999,-12.98 -29.4999,-29 0,-16.02 13.2075,-29 29.4999,-29 16.2923,0 29.5,12.98 29.5,29 0,16.02 -13.2077,29 -29.5,29 z"
       stroke="#4472c4"
       stroke-width="4.58333"
       stroke-miterlimit="8"
       fill="#4472c4"
       fill-rule="evenodd"
       id="path103" />
    <path
       d="m 376.5,1803.2509 c -16.016,0 -29,-13.21 -29,-29.5 0,-16.29 12.984,-29.5 29,-29.5 16.017,0 29,13.21 29,29.5 0,16.29 -12.983,29.5 -29,29.5 z"
       stroke="#4472c4"
       stroke-width="4.58333"
       stroke-miterlimit="8"
       fill="#4472c4"
       fill-rule="evenodd"
       id="path105" />
    <path
       d="m 603,1584.2509 c -16.292,0 -29.5,-13.21 -29.5,-29.5 0,-16.29 13.208,-29.5 29.5,-29.5 16.292,0 29.5,13.21 29.5,29.5 0,16.29 -13.208,29.5 -29.5,29.5 z"
       stroke="#4472c4"
       stroke-width="4.58333"
       stroke-miterlimit="8"
       fill="#4472c4"
       fill-rule="evenodd"
       id="path107" />
    <path
       d="m 83.5002,1502.2509 c -16.0162,0 -28.9999,-13.21 -28.9999,-29.5 0,-16.29 12.9837,-29.5 28.9999,-29.5 16.0162,0 28.9998,13.21 28.9998,29.5 0,16.29 -12.9836,29.5 -28.9998,29.5 z"
       stroke="#4472c4"
       stroke-width="4.58333"
       stroke-miterlimit="8"
       fill="#4472c4"
       fill-rule="evenodd"
       id="path109" />
    <path
       d="m 307,1280.2509 c -16.293,0 -29.5,-12.98 -29.5,-29 0,-16.02 13.207,-29 29.5,-29 16.292,0 29.5,12.98 29.5,29 0,16.02 -13.208,29 -29.5,29 z"
       stroke="#4472c4"
       stroke-width="4.58333"
       stroke-miterlimit="8"
       fill="#4472c4"
       fill-rule="evenodd"
       id="path111" />
    <path
       d="m 602,1281.2509 c -16.293,0 -29.5,-12.98 -29.5,-29 0,-16.02 13.207,-29 29.5,-29 16.292,0 29.5,12.98 29.5,29 0,16.02 -13.208,29 -29.5,29 z"
       stroke="#4472c4"
       stroke-width="4.58333"
       stroke-miterlimit="8"
       fill="#4472c4"
       fill-rule="evenodd"
       id="path113" />
    <path
       d="m 513.5,1548.2509 c -16.016,0 -29,-13.21 -29,-29.5 0,-16.29 12.984,-29.5 29,-29.5 16.016,0 29,13.21 29,29.5 0,16.29 -12.984,29.5 -29,29.5 z"
       stroke="#4472c4"
       stroke-width="4.58333"
       stroke-miterlimit="8"
       fill="#4472c4"
       fill-rule="evenodd"
       id="path115" />
    <path
       d="m 171,1711.2509 c -16.292,0 -29.5,-12.98 -29.5,-29 0,-16.02 13.208,-29 29.5,-29 16.292,0 29.5,12.98 29.5,29 0,16.02 -13.208,29 -29.5,29 z"
       stroke="#4472c4"
       stroke-width="4.58333"
       stroke-miterlimit="8"
       fill="#4472c4"
       fill-rule="evenodd"
       id="path117" />
    <path
       d="m 333,1364.2509 c -16.292,0 -29.5,-13.21 -29.5,-29.5 0,-16.29 13.208,-29.5 29.5,-29.5 16.293,0 29.5,13.21 29.5,29.5 0,16.29 -13.207,29.5 -29.5,29.5 z"
       stroke="#4472c4"
       stroke-width="4.58333"
       stroke-miterlimit="8"
       fill="#4472c4"
       fill-rule="evenodd"
       id="path119" />
    <path
       d="M 335.5,1329.5209 308,1252.7501"
       stroke="#4472c4"
       stroke-width="13.75"
       stroke-miterlimit="8"
       fill="none"
       fill-rule="evenodd"
       id="path121" />
    <path
       d="m 87.9998,1771.7509 283.403,1.5276"
       stroke="#4472c4"
       stroke-width="13.75"
       stroke-miterlimit="8"
       fill="none"
       fill-rule="evenodd"
       id="path123" />
    <path
       d="m 82.9998,1769.8309 87.0832,-87.08"
       stroke="#4472c4"
       stroke-width="13.75"
       stroke-miterlimit="8"
       fill="none"
       fill-rule="evenodd"
       id="path125" />
    <path
       d="m 82.7644,1771.4309 -0.764009,-298.68"
       stroke="#4472c4"
       stroke-width="13.75"
       stroke-miterlimit="8"
       fill="none"
       fill-rule="evenodd"
       id="path127" />
    <path
       d="m 82.9998,1472.5109 221.5272,-220.76"
       stroke="#4472c4"
       stroke-width="13.75"
       stroke-miterlimit="8"
       fill="none"
       fill-rule="evenodd"
       id="path129" />
    <path
       d="m 306,1251.5109 294.097,-0.76"
       stroke="#4472c4"
       stroke-width="13.75"
       stroke-miterlimit="8"
       fill="none"
       fill-rule="evenodd"
       id="path131" />
    <path
       d="m 378,1773.1809 225.729,-219.43"
       stroke="#4472c4"
       stroke-width="13.75"
       stroke-miterlimit="8"
       fill="none"
       fill-rule="evenodd"
       id="path133" />
    <path
       d="m 603.058,1251.7509 -0.058,305"
       stroke="#4472c4"
       stroke-width="13.75"
       stroke-miterlimit="8"
       fill="none"
       fill-rule="evenodd"
       id="path135" />
    <path
       d="m 516,1517.7509 85.3648,37.8125"
       stroke="#4472c4"
       stroke-width="13.75"
       stroke-miterlimit="8"
       fill="none"
       fill-rule="evenodd"
       id="path137" />
    <path
       d="m 82.9998,1473.7509 89.0513,211.388"
       stroke="#4472c4"
       stroke-width="13.75"
       stroke-miterlimit="8"
       fill="none"
       fill-rule="evenodd"
       id="path139" />
    <path
       d="M 374.316,1774.8309 174.999,1678.7534"
       stroke="#4472c4"
       stroke-width="13.75"
       stroke-miterlimit="8"
       fill="none"
       fill-rule="evenodd"
       id="path141" />
    <path
       d="m 170,1682.0409 347.188,-167.29"
       stroke="#4472c4"
       stroke-width="13.75"
       stroke-miterlimit="8"
       fill="none"
       fill-rule="evenodd"
       id="path143" />
    <path
       d="m 170,1681.7909 162.708,-346.04"
       stroke="#4472c4"
       stroke-width="13.75"
       stroke-miterlimit="8"
       fill="none"
       fill-rule="evenodd"
       id="path145" />
    <path
       d="m 331,1336.7509 176.458,176.458"
       stroke="#4472c4"
       stroke-width="13.75"
       stroke-miterlimit="8"
       fill="none"
       fill-rule="evenodd"
       id="path147" />
    <path
       d="m 512,1514.0009 90.521,-261.25"
       stroke="#4472c4"
       stroke-width="13.75"
       stroke-miterlimit="8"
       fill="none"
       fill-rule="evenodd"
       id="path149" />
    <path
       d="m 331,1334.1009 271.562,-81.35"
       stroke="#4472c4"
       stroke-width="13.75"
       stroke-miterlimit="8"
       fill="none"
       fill-rule="evenodd"
       id="path151" />
    <path
       d="m 373,1768.6909 141.511,-250.94"
       stroke="#4472c4"
       stroke-width="13.75"
       stroke-miterlimit="8"
       fill="none"
       fill-rule="evenodd"
       id="path153" />
    <path
       d="m 86.9998,1470.2509 246.3542,-137.5"
       stroke="#4472c4"
       stroke-width="13.75"
       stroke-miterlimit="8"
       fill="none"
       fill-rule="evenodd"
       id="path155" />
    <path
       d="m 690.5,820.25073 v 153.373"
       stroke="#70ad47"
       stroke-width="55"
       stroke-miterlimit="8"
       fill="none"
       fill-rule="evenodd"
       id="path157" />
    <path
       d="m 690.5,1027.2509 v 153.37"
       stroke="#70ad47"
       stroke-width="55"
       stroke-miterlimit="8"
       fill="none"
       fill-rule="evenodd"
       id="path159" />
    <path
       d="m 690.5,1233.2509 v 153.37"
       stroke="#4472c4"
       stroke-width="55"
       stroke-miterlimit="8"
       fill="none"
       fill-rule="evenodd"
       id="path161" />
    <path
       d="m 690.5,1439.2509 v 153.37"
       stroke="#4472c4"
       stroke-width="55"
       stroke-miterlimit="8"
       fill="none"
       fill-rule="evenodd"
       id="path163" />
  </g>
</svg>
